# xmcd
#
# Track frame offsets:
#	150
#	16547
#	33780
#	52715
#	70617
#	87607
#	108880
#	124942
#	140562
#	151655
#	166525
#	187080
#	209127
#	225015
#	240137
#	259207
#	274212
#	291225
#	307655
#
# Disc length: 4334 seconds
#
# Revision: 0
# Processed by: cddbd v1.5.2PL0 Copyright (c) Steve Scherf et al.
# Submitted via: EasyCDDAExtractor 2011.0.0.0
#
DISCID=eb10ec13
DTITLE=Ana gabriel - Ana gabriel  19 exitos
DYEAR=1900
DGENRE=Balada
TTITLE0=Con Un Mismo Corazon
TTITLE1=A Pesar De Todo
TTITLE2=Es Demasiado Tarde
TTITLE3=Destino
TTITLE4=No Entiendo
TTITLE5=Mi Talisman
TTITLE6=Sin Problemas
TTITLE7=Hechizo
TTITLE8=No Siempre Se Gana
TTITLE9=Oye
TTITLE10=Luna
TTITLE11=No Te Hago Falta
TTITLE12=Quien Como Tu
TTITLE13=Ay Amor
TTITLE14=Evidencias
TTITLE15=Ahora
TTITLE16=Simplemente Amigos
TTITLE17=Eso No Basta
TTITLE18=Besos Prohibidos
EXTD=
EXTT0=
EXTT1=
EXTT2=
EXTT3=
EXTT4=
EXTT5=
EXTT6=
EXTT7=
EXTT8=
EXTT9=
EXTT10=
EXTT11=
EXTT12=
EXTT13=
EXTT14=
EXTT15=
EXTT16=
EXTT17=
EXTT18=
PLAYORDER=
